<svg xmlns="http://www.w3.org/2000/svg" fill="#fff" viewBox="-16.28 -16.28 358.21 358.21"><g id="SVGRepo_tracerCarrier" stroke="#fff" stroke-linecap="round" stroke-linejoin="round" stroke-width="22.796"><defs><style>.a{fill:#334155}.b{fill:#fff}.c{fill:#211715}.d{fill:none}.e{fill:#4d4544}</style></defs><path d="M226.9 275.36h8.326c8.39-2.78 23.8-8.78 33.39-15.95 6.76-5.06 8.58-10.25 10.25-15.16.96-2.85 1.73-9.92 1.84-12.88.14-3.83-1.51-14.82-2.51-20.04-2.22-12.25-4.03-20.47-10.81-44.14-3.41-11.93-8.8-22.3-13.92-27.67-5.71-5.98-12.16-9.38-19.84-12.45-6.86-2.75-11.91-4.25-17.99-6.33-3-.67-7.63-3.12-8.9-4.68-.16-.19-.3-.37-.43-.54-.86-1.2-1.07-2.21-2.08-6.42-.649-2.628-1.169-4.837-1.658-6.775a40.3 40.3 0 0 1-9.314 9.761 52 52 0 0 1-8.868 5.834c-3.63 1.821-11.128 4.689-17.028 5.208a40.8 40.8 0 0 1-15.173-1.191l-.063.177c-3.038-.787-.184 2.092-2.458 2.826l-.468.151a202 202 0 0 0-26 10.251 28.6 28.6 0 0 0-9.724 9.029c-3.364 5.055-5.124 12.626-5.684 15.388-2.262 11.167-6.617 29.5-8.1 33.645-2.446 6.837-4.5 12.1-8.448 18.23V241.9Z" class="a"/><path d="M215.736 250.758c-6.317 1.268-11.709 2.389-17.918.8a39.2 39.2 0 0 1-9.386-4c-2.841-1.636-6.222-2.8-9.379-1.917-3.627 1.015-6 4.4-8.092 7.521 2.829 9.006 5.7 18.152 8.257 26.311a10.17 10.17 0 0 0 5.625-2.973l-.17.292a4.73 4.73 0 0 0 0 5.469c1.13 1.5 3.885 1.781 5.4.906 4.564-2.707 8.268-6.082 13.127-8.848a19.55 19.55 0 0 0 11.331 3.982c2.818.066 4.785-.011 6.693-.926a11.2 11.2 0 0 0 2.655-1.847 22.5 22.5 0 0 0 4.333-6.278c.462-1.058 1.028-3.639.647-4.744-1.645-4.778-6.145-11.294-10.119-14.339-1.031.196-2.028.395-3.004.591M124.99 67.011l-.064-.413a4.96 4.96 0 0 0 3.183.743 592 592 0 0 1 25.867-.882c18.77-.242 39.144 0 52.269.278 3.173.066 8.8 1.667 11.259 3.555v.244a5.63 5.63 0 0 1 2.572 2.608c1.563 3.216.976 8.818-.582 12.181a17.7 17.7 0 0 1-6.484 8.061 12.9 12.9 0 0 1-6.932 1.623c1.94-1.487-2.448 5.7-2.448 5.7a40.7 40.7 0 0 1-10.375 11.376 52 52 0 0 1-8.868 5.834c-3.63 1.821-11.128 4.689-17.028 5.208-10.025.881-18.484-.858-26.488-7.056-7.633-5.912-11.143-15.464-12.6-26.091-.87-6.351-1.662-13.28-2.789-20.172a73 73 0 0 1-.492-2.797" class="b"/><path d="M223.452 285.131c-14.488 6.441-33.49 14.81-41.338 18.089l-.589.246.565-.337a5.63 5.63 0 0 0 2.492-6.527c-1.466-4.689-3.314-10.59-5.364-17.126a10.17 10.17 0 0 0 5.625-2.973l.151-.147-.321.439a4.73 4.73 0 0 0 0 5.469c1.13 1.5 3.885 1.781 5.4.906 3.242-1.923 6.055-4.18 9.151-6.32l8.6.067a19.5 19.5 0 0 0 6.708 1.387c2.818.066 4.785-.011 6.693-.926q.302-.143.593-.313l.067-.04c1.2.02 2.775.036 4.531.049 3.3.026 7.207.042 10.266.056a1 1 0 0 1 .412 1.909 2997 2997 0 0 1-10.679 4.777Z" class="c"/><path d="M221.818 279.424c2.913.047 5.827.061 8.74.077l4.688.022a7.4 7.4 0 0 0 1.084 0h.348q.4-3.208-.973-2.486a8 8 0 0 0-1.2.54q-6.025 2.706-12.064 5.386-14.64 6.509-29.321 12.924-3.378 1.473-6.761 2.931-1.466.63-2.932 1.255l-.568.241-.321.136-1.137.478a2.48 2.48 0 0 0-1.677 2.952 2.415 2.415 0 0 0 2.953 1.676c9.289-3.879 18.491-7.97 27.7-12.033q8.019-3.537 16.027-7.1 3.394-1.51 6.788-3.027l2.943-1.318a12.4 12.4 0 0 0 2.646-1.306 3.413 3.413 0 0 0-.288-5.515c-1.552-.951-3.989-.543-5.742-.551-3.644-.017-7.289-.029-10.933-.088-3.09-.049-3.09 4.751 0 4.8ZM130.754 23.713c-5.38 6.954-7.931 15.3-8.822 23.969a76.9 76.9 0 0 0 1.88 25.681c.729 3 5.359 1.73 4.629-1.276a73.6 73.6 0 0 1-1.777-23.7c.668-7.488 2.826-15.259 7.484-21.28a2.48 2.48 0 0 0 0-3.394 2.416 2.416 0 0 0-3.394 0m91.97 52.309c1.973-4.356 2.617-9.181 3.026-13.906a58.6 58.6 0 0 0-.023-12.5c-1.187-9.362-3.842-18.464-9.744-25.97a56 56 0 0 0-25.577-18.435c-7.882-2.69-16.08-3.02-24.277-1.954a59.3 59.3 0 0 0-15.861 4.068 41.3 41.3 0 0 0-12.927 8.846c-2.186 2.188 1.207 5.583 3.395 3.395 6.2-6.2 13.988-9.532 22.537-11.057 7.539-1.344 15.189-1.586 22.574.343a50.1 50.1 0 0 1 24.173 15.161 38.8 38.8 0 0 1 6.919 10.335 53.8 53.8 0 0 1 3.514 12.276 54.8 54.8 0 0 1 .663 13.262c-.285 4.522-.644 9.537-2.536 13.713a2.47 2.47 0 0 0 .861 3.284 2.42 2.42 0 0 0 3.283-.861" class="c"/><path d="M123.292 71.175c.822 5.193 1.471 10.41 2.155 15.623a82 82 0 0 0 2.577 13.506 39.1 39.1 0 0 0 5.313 11.249 32.5 32.5 0 0 0 9.392 8.737c14.975 9.38 35.3 5.852 49.091-4.123a52.7 52.7 0 0 0 10.443-9.421 46.7 46.7 0 0 0 6.054-9.568 2.47 2.47 0 0 0-.861-3.283 2.42 2.42 0 0 0-3.283.861c-6.1 13.284-19.266 22.291-33.3 25.392-7.64 1.688-16.3 1-23.3-2.616a29.2 29.2 0 0 1-9.155-7.176 31.1 31.1 0 0 1-5.236-9.692 68.6 68.6 0 0 1-2.909-13.636c-.751-5.715-1.455-11.436-2.356-17.13a2.42 2.42 0 0 0-2.953-1.676 2.46 2.46 0 0 0-1.676 2.953Z" class="c"/><path d="M211.262 73.061a4.89 4.89 0 0 1 4.523-.646 3.2 3.2 0 0 1 2.072 1.656c1.363 2.524.8 6.284-.035 8.934a16.35 16.35 0 0 1-4.867 7.468c-1.918 1.609-5.446 2.977-8.023 1.878a2.48 2.48 0 0 0-3.283.861 2.415 2.415 0 0 0 .861 3.283 13.3 13.3 0 0 0 10.838-.573c3.121-1.45 5.6-4.428 7.228-7.392a22.1 22.1 0 0 0 2.8-9.721c.142-3.1-.4-6.573-2.665-8.873a9.616 9.616 0 0 0-11.873-1.02 2.465 2.465 0 0 0-.861 3.284 2.42 2.42 0 0 0 3.284.861Z" class="c"/><path d="M179.257 75.419c.712 2.139.393 7.1-3.679 7.618-5.4.09-5.818-5.9-4.066-8.753 1.434-2.34 5.788-3.398 7.745 1.135m-32.475-.199c.658 2.077.378 6.894-3.356 7.382-4.949.072-5.353-5.735-3.753-8.5 1.309-2.27 5.297-3.285 7.109 1.118" class="d"/><path d="M154.882 85A50 50 0 0 0 153 88.691a5.25 5.25 0 0 0-.6 2.136 3.13 3.13 0 0 0 1.151 2.47 4.4 4.4 0 0 0 1.931 1.026c.47.092.933.1 1.4.16a2.4 2.4 0 0 0 1.7-.7 2.4 2.4 0 0 0 0-3.394l-.485-.375a2.4 2.4 0 0 0-1.212-.328c-.211-.025-.424-.027-.636-.053l.638.086a2.2 2.2 0 0 1-.544-.151l.573.242a2.6 2.6 0 0 1-.457-.279l.486.375a2.6 2.6 0 0 1-.3-.274l.375.486a.7.7 0 0 1-.08-.128l.242.573a1 1 0 0 1-.062-.216l.086.639a1.5 1.5 0 0 1 .008-.317l-.086.638a3 3 0 0 1 .175-.572l-.242.573c.578-1.329 1.262-2.618 1.969-3.882a2.5 2.5 0 0 0 .242-1.85 2.4 2.4 0 0 0-4.39-.576" class="c"/><path d="M131.141 72.451c3.5-.355 17.2-.293 27.073-.636 4.415-.153 29.416-.083 36.339.262a3.49 3.49 0 0 1 3.05 2.571 6.02 6.02 0 0 1-1.014 5.28c-5.209 6.283-14.142 9.522-21.014 9.218-5.8-.256-10.487-2.1-14.551-6.434a5.385 5.385 0 0 0-7.775-.228c-2.748 2.718-6.395 4.812-10.212 4.624-6.256-.309-10.6-2.335-13.476-9.492a5.7 5.7 0 0 1-.436-3.474 2.4 2.4 0 0 1 2.016-1.691M216.63 22.82a42.83 42.83 0 0 1 8.417 22.528 60.9 60.9 0 0 1-.658 18.791c-.665 3.078-3.761 6.558-6.885 6.153-2.457-1.888-8.086-3.489-11.259-3.555-13.125-.275-33.5-.52-52.269-.278-12.1.156-20.829.6-25.867.882-2.951.163-4.583-1.333-4.812-3.937-.122-1.383-.143-3.239-.125-4.964.137-13.175 1.664-22.686 5.125-29.453 5.009-9.794 9.9-15.1 18.764-20.25a48.4 48.4 0 0 1 21.267-6.109 64.9 64.9 0 0 1 22.962 2.145 46.06 46.06 0 0 1 25.34 18.047" class="c"/><path d="M214.558 24.032a44.2 44.2 0 0 1 5.459 9.769 45.4 45.4 0 0 1 2.63 11.547 65.3 65.3 0 0 1 .036 14.618c-.347 2.8-1.238 8.27-5.179 7.926l1.212.328a22.7 22.7 0 0 0-9.58-3.567 70 70 0 0 0-10.2-.452q-12.529-.2-25.061-.236c-9.048-.021-18.1.009-27.143.229q-5.607.136-11.211.379c-2.632.114-5.311.422-7.945.377-1.155-.019-1.589-.325-1.81-1.261a25 25 0 0 1-.185-5.729 123 123 0 0 1 .729-12.554 57 57 0 0 1 1.971-9.875 40 40 0 0 1 3.783-8.474 41.16 41.16 0 0 1 13.066-14.3 47.1 47.1 0 0 1 22.828-7.7 62.8 62.8 0 0 1 25.756 3 43.46 43.46 0 0 1 17.929 12.32 47 47 0 0 1 2.918 3.658 2.47 2.47 0 0 0 3.284.861 2.42 2.42 0 0 0 .861-3.284 49.95 49.95 0 0 0-22.349-17.676C185.963-.126 174.238-.78 163.266.775A49.5 49.5 0 0 0 136.137 13.8a48.25 48.25 0 0 0-12.963 22.162 77.4 77.4 0 0 0-2.091 14.113c-.195 2.857-.29 5.721-.313 8.585-.018 2.3-.223 4.952.646 7.121a6.26 6.26 0 0 0 5.328 3.909 31 31 0 0 0 4.936-.134q6.555-.33 13.118-.509c11.579-.319 23.169-.322 34.753-.257q7.962.045 15.925.161 3.54.051 7.08.116a35.4 35.4 0 0 1 5.8.305 23.6 23.6 0 0 1 6.182 1.936c.993.495 1.83 1.285 2.963 1.387a7.05 7.05 0 0 0 3.74-.79c5.2-2.564 6-8.67 6.429-13.814.852-10.283-.429-21.422-5.31-30.633a53 53 0 0 0-3.66-5.846 2.467 2.467 0 0 0-3.284-.861 2.42 2.42 0 0 0-.858 3.281m-60.582 82.913a26.7 26.7 0 0 0 10.015-.871 2 2 0 0 0-1.064-3.858 22 22 0 0 1-2.246.534c-.221.04-.443.073-.664.11-.437.074.343-.035-.14.021a34 34 0 0 1-1.185.118 27.3 27.3 0 0 1-4.716-.054 2.007 2.007 0 0 0-2 2 2.054 2.054 0 0 0 2 2m-1.214 12.855c-2.117-.488-4.423.184-4.556 2.7-.011.21.008.413.015.622a2 2 0 0 0 .02.348c.111.351-.055.035.047-.116a2.7 2.7 0 0 1 .28-.444c.687-.686.575-.254.327-.243a8.3 8.3 0 0 0-1.9.617q-7 2.3-13.838 5.05-3.584 1.445-7.11 3.026a42 42 0 0 0-5.562 2.772 31.35 31.35 0 0 0-9.281 9.331c-4.072 6.368-5.327 13.979-6.9 21.229-1.632 7.532-3.361 15.052-5.32 22.507a81.1 81.1 0 0 1-9.813 23.221c-1.671 2.609 2.482 5.019 4.145 2.423 8.1-12.644 11.244-27.387 14.5-41.822 1.54-6.833 2.556-13.912 5.153-20.451a26.7 26.7 0 0 1 7.176-10.168c2.952-2.63 6.538-4.132 10.129-5.7 4.971-2.168 10.055-4.086 15.184-5.847q1.8-.617 3.6-1.2a6.96 6.96 0 0 0 2.906-1.351 3.86 3.86 0 0 0 1.079-2.746 3 3 0 0 0-.043-.758c-.075-.271.242-.149-.055.216l-1.653 1.367q-.358-.072.195.049c3.006.693 4.29-3.933 1.276-4.628Zm47.492-16.842c.587 2.335 1.151 4.676 1.717 7.016a36 36 0 0 0 1.372 5.031c1.372 3.425 4.705 5.332 7.946 6.739 4.17 1.811 8.688 2.948 12.991 4.421a128 128 0 0 1 13.764 5.42 47.4 47.4 0 0 1 11.212 7.2 38.6 38.6 0 0 1 7.49 9.225c5.23 8.76 7.982 18.458 10.705 28.209a381 381 0 0 1 8.967 38.727c1.152 6.786 2.293 13.615 1.572 20.5-.769 7.338-2.764 14.68-8.282 19.923a51.8 51.8 0 0 1-11.249 7.565 132 132 0 0 1-12.233 5.769q-5.369 2.22-10.877 4.088c-.279.094-.861.247-.16.168a3 3 0 0 1-.292 0H226.9c-3.089 0-3.094 4.8 0 4.8h6.733a8.4 8.4 0 0 0 2.861-.3q2.524-.849 5.019-1.781c8.574-3.192 17.145-6.876 24.867-11.823a35.3 35.3 0 0 0 10.6-9.7 33.6 33.6 0 0 0 4.5-10.3 63.5 63.5 0 0 0 1.584-11.567 52 52 0 0 0-.711-9.905 306 306 0 0 0-7.953-38.975c-2.639-9.9-5.105-19.971-9.208-29.382a66 66 0 0 0-6.62-12.013 42.3 42.3 0 0 0-9.336-9.39c-7.868-5.847-17.529-9.06-26.734-12.125-4.129-1.374-8.523-2.388-12.251-4.7a5.64 5.64 0 0 1-2.449-2.489c.249.506-.033-.12-.094-.306-.1-.3-.186-.609-.27-.916-.306-1.124-.562-2.262-.836-3.394-.566-2.34-1.129-4.682-1.716-7.016-.753-2.994-5.384-1.726-4.629 1.276Z" class="c"/><path d="M196.766 126.23c.045-.023.049-.03 0 0" class="b"/><path d="M274.78 255.542q8.126 0 16.249-.024l25.838-.039q3.234 0 6.469-.009c3.088 0 3.094-4.8 0-4.8q-8.379 0-16.757.025l-25.7.038q-3.051 0-6.1.009c-3.088 0-3.093 4.8 0 4.8Zm-272.462.008c8.082-.005 16.164-.047 24.246-.069 1.374 0 2.749-.01 4.123-.011 3.088 0 3.094-4.8 0-4.8-8.218 0-16.437.046-24.655.07-1.238 0-2.476.009-3.714.01-3.088 0-3.093 4.8 0 4.8m221.466-15.613c4.927-2.09 9.662-4.524 14.474-6.855a2.415 2.415 0 0 0 .861-3.284 2.463 2.463 0 0 0-3.284-.861c-4.812 2.331-9.547 4.766-14.473 6.855a2.4 2.4 0 0 0-.861 3.284 2.48 2.48 0 0 0 3.283.861m3.183-45.219 7.318 26.786c.813 2.976 5.445 1.713 4.628-1.276l-7.313-26.786c-.813-2.976-5.445-1.713-4.629 1.276Zm-106.642-11.549c2.56 8.289 5.478 16.481 8.286 24.688.5 1.473 1 2.948 1.526 4.415a2.46 2.46 0 0 0 2.952 1.676 2.42 2.42 0 0 0 1.676-2.948c-2.871-8.065-5.553-16.205-8.253-24.328-.528-1.589-1.064-3.176-1.558-4.775-.909-2.942-5.544-1.687-4.629 1.276Zm57.735-65.154a69 69 0 0 1-9.192 1.585c-2.521.269-5.291.571-7.721-.341-2.581-.967-3.962-3.633-6.962-3.765-3.384-.149-4.706 2.685-5.2 5.528l2.314-1.762h-.01a2.43 2.43 0 0 0-2.314 1.762c-.117.632-.054.941-.417 1.095a2.415 2.415 0 0 0-.861 3.284 2.464 2.464 0 0 0 3.284.861 5 5 0 0 0 2.619-3.962l-2.315 1.762h.01a2.425 2.425 0 0 0 2.315-1.762c.091-.526.169-1.057.3-1.575s.326-.487.021-.444c.718-.1 1.56.934 2.035 1.334a12.76 12.76 0 0 0 7.163 2.933 32.3 32.3 0 0 0 7.37-.336 75 75 0 0 0 8.831-1.566c3-.739 1.728-5.37-1.276-4.629Zm-4.92 136.203c1.8-2.679 4.042-6.112 7.576-6.457a10.53 10.53 0 0 1 5.752 1.457c2.092 1.1 4.123 2.231 6.311 3.143a29.5 29.5 0 0 0 13 2.334c4.593-.248 9.095-1.355 13.6-2.211l-2.335-.617a29.2 29.2 0 0 1 6.228 7.02 37 37 0 0 1 2.471 4.323 13 13 0 0 1 .75 1.786 2.5 2.5 0 0 1 .046 1.265 8.3 8.3 0 0 1-1.3 3.521 18.4 18.4 0 0 1-2.631 3.636c-2.034 2.092-4.287 2.522-7.089 2.5a18.32 18.32 0 0 1-11.2-3.731 2.415 2.415 0 0 0-3.283.861 2.46 2.46 0 0 0 .861 3.284 22.14 22.14 0 0 0 11.358 4.3c3.294.3 6.924.175 9.845-1.539a18.97 18.97 0 0 0 6.782-7.8 13.6 13.6 0 0 0 1.418-4.738 8.77 8.77 0 0 0-.976-4.8 39.7 39.7 0 0 0-5.867-9.271 27 27 0 0 0-3.525-3.611 3.4 3.4 0 0 0-3.073-.97c-1.163.2-2.319.455-3.476.686a46.5 46.5 0 0 1-11.776 1.311 28.2 28.2 0 0 1-11.436-3.567c-4.053-2.142-8.4-4.441-13.108-2.894-4.121 1.354-6.743 4.908-9.067 8.358-1.73 2.569 2.426 4.974 4.145 2.423Z" class="c"/><path d="m175.172 265.159 4.48-4.321a2.4 2.4 0 0 0 0-3.394 2.4 2.4 0 0 0-1.7-.7 2.53 2.53 0 0 0-1.7.7l-4.48 4.321a2.4 2.4 0 0 0 0 3.394 2.42 2.42 0 0 0 1.7.7 2.54 2.54 0 0 0 1.7-.7m5.243 16.492a13.7 13.7 0 0 0 3.738-1.523 19.4 19.4 0 0 0 3.041-2.561c2.05-1.97 4.182-3.854 6.22-5.839a2.4 2.4 0 0 0-3.395-3.394c-1.933 1.884-3.952 3.676-5.905 5.538-.482.46-.951.935-1.443 1.384-.085.077-.588.418-.584.5 0-.049.432-.312.132-.105-.1.07-.2.143-.3.211q-.31.207-.638.385a9 9 0 0 1-.342.176c-.033.016-.5.248-.152.077s-.1.038-.182.067a15 15 0 0 1-1.463.454 2.4 2.4 0 1 0 1.276 4.629Zm1.985-19.108c-2.135 2.347-4.435 4.546-6.78 6.681a2.42 2.42 0 0 0 0 3.394 2.454 2.454 0 0 0 3.394 0c2.345-2.135 4.645-4.334 6.78-6.681a2.4 2.4 0 1 0-3.394-3.394" class="c"/><path d="M182.6 275.583a7.15 7.15 0 0 0-.126 7.721 6.74 6.74 0 0 0 6.908 2.619 8.9 8.9 0 0 0 3.227-1.5 76 76 0 0 0 3.555-2.443c2.287-1.648 4.547-3.332 6.946-4.816a2.4 2.4 0 0 0-2.423-4.145c-3.888 2.406-7.4 5.367-11.293 7.756-.205.126-.415.245-.62.369s.365-.067-.061.018c-.179.035-.6.126-.18.076a5 5 0 0 1-.651.026c-.063 0-.645-.066-.339-.016s-.269-.072-.327-.089c-.1-.029-.632-.291-.23-.068-.107-.059-.584-.407-.206-.081a1.68 1.68 0 0 1-.572-1.143 3 3 0 0 1 .021-.762 2.3 2.3 0 0 1 .516-1.1 2.424 2.424 0 0 0-.861-3.284 2.45 2.45 0 0 0-3.284.861ZM24.367 207.767c30.788.512 101.072.672 126.167.839a8.79 8.79 0 0 1 8.329 6.141c5.972 18.886 19.4 61.641 25.719 81.855a5.633 5.633 0 0 1-5.4 7.317c-27.194-.1-100.462-.36-128.631-.93a5.62 5.62 0 0 1-5.264-3.963c-5.555-17.964-19.82-63.232-26.392-83.912a5.64 5.64 0 0 1 5.472-7.347" class="c"/><path d="M24.367 210.167c14.379.238 28.762.331 43.143.423q25.2.162 50.4.257 10.6.046 21.2.1 4.14.019 8.28.044c3.068.018 6.222-.168 8.251 2.621a15 15 0 0 1 1.752 4.442q.708 2.239 1.414 4.48 1.686 5.344 3.368 10.692 3.912 12.424 7.814 24.851 3.846 12.245 7.685 24.491 1.619 5.164 3.236 10.329c.776 2.48 3.052 6.784-.324 8.328-1.138.52-2.6.294-3.829.289l-3.975-.014-9.171-.034q-10.962-.042-21.926-.093-24.94-.114-49.881-.3c-13.491-.1-26.983-.206-40.472-.469-1.5-.029-2.927-.386-3.617-1.89a32 32 0 0 1-1.2-3.821q-1.446-4.653-2.9-9.3-3.631-11.618-7.285-23.227-7.176-22.818-14.4-45.62c-.421-1.327-1.2-2.86-.774-4.241a3.29 3.29 0 0 1 3.212-2.334c3.086-.04 3.094-4.84 0-4.8a8.135 8.135 0 0 0-7.956 9.717 47 47 0 0 0 1.425 4.62l1.571 4.957q3.753 11.854 7.491 23.714 7.406 23.493 14.747 47.008c1.1 3.546 1.849 7.463 5.562 9.211 2.807 1.321 6.541.857 9.59.905q10.269.162 20.538.249 25.367.246 50.735.355 22.469.117 44.936.194l4.052.014a13.2 13.2 0 0 0 5.08-.561 8.14 8.14 0 0 0 4.778-5.2c.653-2.148.116-4.154-.527-6.212q-3.468-11.084-6.945-22.163-7.822-24.933-15.674-49.858c-1.014-3.215-1.781-6.721-3.215-9.777-2.032-4.329-6.346-6.313-10.932-6.343q-8.967-.057-17.935-.092-24.9-.113-49.795-.233c-16.192-.088-32.384-.183-48.574-.381q-4.476-.054-8.952-.127c-3.091-.052-3.092 4.748-.001 4.799" class="c"/><path d="M78.021 253.825c-.192-2.285 1.5-4.161 3.755-4.893a7.66 7.66 0 0 1 6.248.675 6.73 6.73 0 0 1 3.217 5.472 6.13 6.13 0 0 1-2.284 4.046 6 6 0 0 1-3.824 1.283 6.8 6.8 0 0 1-4.371-1.742 11.1 11.1 0 0 1-2.568-3.932 4.5 4.5 0 0 1-.173-.909m34.088 0c-.883-2.285-3.457-4.161-6.056-4.893-2.14-.6-4.5-.543-5.93.675s-1.6 3.552-.645 5.472a11.8 11.8 0 0 0 4.186 4.046 8.87 8.87 0 0 0 4.428 1.283 4.16 4.16 0 0 0 3.552-1.742 4.8 4.8 0 0 0 .462-1.111 6.1 6.1 0 0 0 .257-2.821 5 5 0 0 0-.254-.909" class="e"/><path d="M117.066 240.559c-9.4-8.013-22.775-11.181-34.883-8.926-6.484 1.208-12.979 4.449-16.427 10.3-3.536 6-2.938 13.148.277 19.129a33.1 33.1 0 0 0 7.368 9.061 27.1 27.1 0 0 0 10.806 6.252L82.53 274.7c.683 2.239 1.347 4.484 2.043 6.719a3.86 3.86 0 0 0 1.717 2.5 7.8 7.8 0 0 0 3.4.718c2.228.1 4.47.048 6.7.053 5.257.014 10.517.043 15.774-.034 2.18-.032 5.391-.312 5.445-3.184a21.3 21.3 0 0 0-.6-3.732q-.366-2.16-.73-4.321l-1.677 2.952c6.958-2.041 11.289-9.513 11.767-16.427.525-7.586-3.788-14.546-9.309-19.385-2.314-2.029-5.722 1.353-3.394 3.394 4.407 3.863 8.071 9.089 7.941 15.178-.107 5-3.178 11.114-8.281 12.612a2.47 2.47 0 0 0-1.676 2.952l.609 3.605.283 1.666.161.947q.07.867.13.153l.617-1.059c.491-.463.186-.219-.25-.178-.344.032-.7.022-1.04.027s-.7.008-1.043.011q-1.325.012-2.649.016-3.636.015-7.271.013-3.609 0-7.219-.014-1.293-.006-2.587-.016a8.1 8.1 0 0 1-2.9-.234l.861.861a12.7 12.7 0 0 1-.691-2.129l-.816-2.686a13.4 13.4 0 0 0-.93-2.832c-.625-1.068-1.834-1.165-2.889-1.538a24.6 24.6 0 0 1-8.32-5.576c-4.379-4.165-8.352-10.1-7.527-16.436.777-5.962 5.539-10.062 10.977-11.918a37.1 37.1 0 0 1 14.32-1.477 35.3 35.3 0 0 1 20.194 8.052 2.464 2.464 0 0 0 3.394 0 2.42 2.42 0 0 0 .002-3.394" class="e"/><path d="m102.826 277.256 1.038 4.736a2.4 2.4 0 0 0 4.386.573 2.6 2.6 0 0 0 .242-1.849l-1.037-4.736a2.4 2.4 0 0 0-4.387-.573 2.6 2.6 0 0 0-.242 1.849m-10.246 0 1.2 4.736a2.4 2.4 0 0 0 2.952 1.676 2.43 2.43 0 0 0 1.435-1.1 2.54 2.54 0 0 0 .242-1.849l-1.2-4.736a2.4 2.4 0 0 0-2.952-1.676 2.43 2.43 0 0 0-1.434 1.1 2.53 2.53 0 0 0-.242 1.849Z" class="e"/></g><g id="SVGRepo_iconCarrier"><path d="M226.9 275.36h8.326c8.39-2.78 23.8-8.78 33.39-15.95 6.76-5.06 8.58-10.25 10.25-15.16.96-2.85 1.73-9.92 1.84-12.88.14-3.83-1.51-14.82-2.51-20.04-2.22-12.25-4.03-20.47-10.81-44.14-3.41-11.93-8.8-22.3-13.92-27.67-5.71-5.98-12.16-9.38-19.84-12.45-6.86-2.75-11.91-4.25-17.99-6.33-3-.67-7.63-3.12-8.9-4.68-.16-.19-.3-.37-.43-.54-.86-1.2-1.07-2.21-2.08-6.42-.649-2.628-1.169-4.837-1.658-6.775a40.3 40.3 0 0 1-9.314 9.761 52 52 0 0 1-8.868 5.834c-3.63 1.821-11.128 4.689-17.028 5.208a40.8 40.8 0 0 1-15.173-1.191l-.063.177c-3.038-.787-.184 2.092-2.458 2.826l-.468.151a202 202 0 0 0-26 10.251 28.6 28.6 0 0 0-9.724 9.029c-3.364 5.055-5.124 12.626-5.684 15.388-2.262 11.167-6.617 29.5-8.1 33.645-2.446 6.837-4.5 12.1-8.448 18.23V241.9Z" class="a"/><path d="M215.736 250.758c-6.317 1.268-11.709 2.389-17.918.8a39.2 39.2 0 0 1-9.386-4c-2.841-1.636-6.222-2.8-9.379-1.917-3.627 1.015-6 4.4-8.092 7.521 2.829 9.006 5.7 18.152 8.257 26.311a10.17 10.17 0 0 0 5.625-2.973l-.17.292a4.73 4.73 0 0 0 0 5.469c1.13 1.5 3.885 1.781 5.4.906 4.564-2.707 8.268-6.082 13.127-8.848a19.55 19.55 0 0 0 11.331 3.982c2.818.066 4.785-.011 6.693-.926a11.2 11.2 0 0 0 2.655-1.847 22.5 22.5 0 0 0 4.333-6.278c.462-1.058 1.028-3.639.647-4.744-1.645-4.778-6.145-11.294-10.119-14.339-1.031.196-2.028.395-3.004.591M124.99 67.011l-.064-.413a4.96 4.96 0 0 0 3.183.743 592 592 0 0 1 25.867-.882c18.77-.242 39.144 0 52.269.278 3.173.066 8.8 1.667 11.259 3.555v.244a5.63 5.63 0 0 1 2.572 2.608c1.563 3.216.976 8.818-.582 12.181a17.7 17.7 0 0 1-6.484 8.061 12.9 12.9 0 0 1-6.932 1.623c1.94-1.487-2.448 5.7-2.448 5.7a40.7 40.7 0 0 1-10.375 11.376 52 52 0 0 1-8.868 5.834c-3.63 1.821-11.128 4.689-17.028 5.208-10.025.881-18.484-.858-26.488-7.056-7.633-5.912-11.143-15.464-12.6-26.091-.87-6.351-1.662-13.28-2.789-20.172a73 73 0 0 1-.492-2.797" class="b"/><path d="M223.452 285.131c-14.488 6.441-33.49 14.81-41.338 18.089l-.589.246.565-.337a5.63 5.63 0 0 0 2.492-6.527c-1.466-4.689-3.314-10.59-5.364-17.126a10.17 10.17 0 0 0 5.625-2.973l.151-.147-.321.439a4.73 4.73 0 0 0 0 5.469c1.13 1.5 3.885 1.781 5.4.906 3.242-1.923 6.055-4.18 9.151-6.32l8.6.067a19.5 19.5 0 0 0 6.708 1.387c2.818.066 4.785-.011 6.693-.926q.302-.143.593-.313l.067-.04c1.2.02 2.775.036 4.531.049 3.3.026 7.207.042 10.266.056a1 1 0 0 1 .412 1.909 2997 2997 0 0 1-10.679 4.777Z" class="c"/><path d="M221.818 279.424c2.913.047 5.827.061 8.74.077l4.688.022a7.4 7.4 0 0 0 1.084 0h.348q.4-3.208-.973-2.486a8 8 0 0 0-1.2.54q-6.025 2.706-12.064 5.386-14.64 6.509-29.321 12.924-3.378 1.473-6.761 2.931-1.466.63-2.932 1.255l-.568.241-.321.136-1.137.478a2.48 2.48 0 0 0-1.677 2.952 2.415 2.415 0 0 0 2.953 1.676c9.289-3.879 18.491-7.97 27.7-12.033q8.019-3.537 16.027-7.1 3.394-1.51 6.788-3.027l2.943-1.318a12.4 12.4 0 0 0 2.646-1.306 3.413 3.413 0 0 0-.288-5.515c-1.552-.951-3.989-.543-5.742-.551-3.644-.017-7.289-.029-10.933-.088-3.09-.049-3.09 4.751 0 4.8ZM130.754 23.713c-5.38 6.954-7.931 15.3-8.822 23.969a76.9 76.9 0 0 0 1.88 25.681c.729 3 5.359 1.73 4.629-1.276a73.6 73.6 0 0 1-1.777-23.7c.668-7.488 2.826-15.259 7.484-21.28a2.48 2.48 0 0 0 0-3.394 2.416 2.416 0 0 0-3.394 0m91.97 52.309c1.973-4.356 2.617-9.181 3.026-13.906a58.6 58.6 0 0 0-.023-12.5c-1.187-9.362-3.842-18.464-9.744-25.97a56 56 0 0 0-25.577-18.435c-7.882-2.69-16.08-3.02-24.277-1.954a59.3 59.3 0 0 0-15.861 4.068 41.3 41.3 0 0 0-12.927 8.846c-2.186 2.188 1.207 5.583 3.395 3.395 6.2-6.2 13.988-9.532 22.537-11.057 7.539-1.344 15.189-1.586 22.574.343a50.1 50.1 0 0 1 24.173 15.161 38.8 38.8 0 0 1 6.919 10.335 53.8 53.8 0 0 1 3.514 12.276 54.8 54.8 0 0 1 .663 13.262c-.285 4.522-.644 9.537-2.536 13.713a2.47 2.47 0 0 0 .861 3.284 2.42 2.42 0 0 0 3.283-.861" class="c"/><path d="M123.292 71.175c.822 5.193 1.471 10.41 2.155 15.623a82 82 0 0 0 2.577 13.506 39.1 39.1 0 0 0 5.313 11.249 32.5 32.5 0 0 0 9.392 8.737c14.975 9.38 35.3 5.852 49.091-4.123a52.7 52.7 0 0 0 10.443-9.421 46.7 46.7 0 0 0 6.054-9.568 2.47 2.47 0 0 0-.861-3.283 2.42 2.42 0 0 0-3.283.861c-6.1 13.284-19.266 22.291-33.3 25.392-7.64 1.688-16.3 1-23.3-2.616a29.2 29.2 0 0 1-9.155-7.176 31.1 31.1 0 0 1-5.236-9.692 68.6 68.6 0 0 1-2.909-13.636c-.751-5.715-1.455-11.436-2.356-17.13a2.42 2.42 0 0 0-2.953-1.676 2.46 2.46 0 0 0-1.676 2.953Z" class="c"/><path d="M211.262 73.061a4.89 4.89 0 0 1 4.523-.646 3.2 3.2 0 0 1 2.072 1.656c1.363 2.524.8 6.284-.035 8.934a16.35 16.35 0 0 1-4.867 7.468c-1.918 1.609-5.446 2.977-8.023 1.878a2.48 2.48 0 0 0-3.283.861 2.415 2.415 0 0 0 .861 3.283 13.3 13.3 0 0 0 10.838-.573c3.121-1.45 5.6-4.428 7.228-7.392a22.1 22.1 0 0 0 2.8-9.721c.142-3.1-.4-6.573-2.665-8.873a9.616 9.616 0 0 0-11.873-1.02 2.465 2.465 0 0 0-.861 3.284 2.42 2.42 0 0 0 3.284.861Z" class="c"/><path d="M179.257 75.419c.712 2.139.393 7.1-3.679 7.618-5.4.09-5.818-5.9-4.066-8.753 1.434-2.34 5.788-3.398 7.745 1.135m-32.475-.199c.658 2.077.378 6.894-3.356 7.382-4.949.072-5.353-5.735-3.753-8.5 1.309-2.27 5.297-3.285 7.109 1.118" class="d"/><path d="M154.882 85A50 50 0 0 0 153 88.691a5.25 5.25 0 0 0-.6 2.136 3.13 3.13 0 0 0 1.151 2.47 4.4 4.4 0 0 0 1.931 1.026c.47.092.933.1 1.4.16a2.4 2.4 0 0 0 1.7-.7 2.4 2.4 0 0 0 0-3.394l-.485-.375a2.4 2.4 0 0 0-1.212-.328c-.211-.025-.424-.027-.636-.053l.638.086a2.2 2.2 0 0 1-.544-.151l.573.242a2.6 2.6 0 0 1-.457-.279l.486.375a2.6 2.6 0 0 1-.3-.274l.375.486a.7.7 0 0 1-.08-.128l.242.573a1 1 0 0 1-.062-.216l.086.639a1.5 1.5 0 0 1 .008-.317l-.086.638a3 3 0 0 1 .175-.572l-.242.573c.578-1.329 1.262-2.618 1.969-3.882a2.5 2.5 0 0 0 .242-1.85 2.4 2.4 0 0 0-4.39-.576" class="c"/><path d="M131.141 72.451c3.5-.355 17.2-.293 27.073-.636 4.415-.153 29.416-.083 36.339.262a3.49 3.49 0 0 1 3.05 2.571 6.02 6.02 0 0 1-1.014 5.28c-5.209 6.283-14.142 9.522-21.014 9.218-5.8-.256-10.487-2.1-14.551-6.434a5.385 5.385 0 0 0-7.775-.228c-2.748 2.718-6.395 4.812-10.212 4.624-6.256-.309-10.6-2.335-13.476-9.492a5.7 5.7 0 0 1-.436-3.474 2.4 2.4 0 0 1 2.016-1.691M216.63 22.82a42.83 42.83 0 0 1 8.417 22.528 60.9 60.9 0 0 1-.658 18.791c-.665 3.078-3.761 6.558-6.885 6.153-2.457-1.888-8.086-3.489-11.259-3.555-13.125-.275-33.5-.52-52.269-.278-12.1.156-20.829.6-25.867.882-2.951.163-4.583-1.333-4.812-3.937-.122-1.383-.143-3.239-.125-4.964.137-13.175 1.664-22.686 5.125-29.453 5.009-9.794 9.9-15.1 18.764-20.25a48.4 48.4 0 0 1 21.267-6.109 64.9 64.9 0 0 1 22.962 2.145 46.06 46.06 0 0 1 25.34 18.047" class="c"/><path d="M214.558 24.032a44.2 44.2 0 0 1 5.459 9.769 45.4 45.4 0 0 1 2.63 11.547 65.3 65.3 0 0 1 .036 14.618c-.347 2.8-1.238 8.27-5.179 7.926l1.212.328a22.7 22.7 0 0 0-9.58-3.567 70 70 0 0 0-10.2-.452q-12.529-.2-25.061-.236c-9.048-.021-18.1.009-27.143.229q-5.607.136-11.211.379c-2.632.114-5.311.422-7.945.377-1.155-.019-1.589-.325-1.81-1.261a25 25 0 0 1-.185-5.729 123 123 0 0 1 .729-12.554 57 57 0 0 1 1.971-9.875 40 40 0 0 1 3.783-8.474 41.16 41.16 0 0 1 13.066-14.3 47.1 47.1 0 0 1 22.828-7.7 62.8 62.8 0 0 1 25.756 3 43.46 43.46 0 0 1 17.929 12.32 47 47 0 0 1 2.918 3.658 2.47 2.47 0 0 0 3.284.861 2.42 2.42 0 0 0 .861-3.284 49.95 49.95 0 0 0-22.349-17.676C185.963-.126 174.238-.78 163.266.775A49.5 49.5 0 0 0 136.137 13.8a48.25 48.25 0 0 0-12.963 22.162 77.4 77.4 0 0 0-2.091 14.113c-.195 2.857-.29 5.721-.313 8.585-.018 2.3-.223 4.952.646 7.121a6.26 6.26 0 0 0 5.328 3.909 31 31 0 0 0 4.936-.134q6.555-.33 13.118-.509c11.579-.319 23.169-.322 34.753-.257q7.962.045 15.925.161 3.54.051 7.08.116a35.4 35.4 0 0 1 5.8.305 23.6 23.6 0 0 1 6.182 1.936c.993.495 1.83 1.285 2.963 1.387a7.05 7.05 0 0 0 3.74-.79c5.2-2.564 6-8.67 6.429-13.814.852-10.283-.429-21.422-5.31-30.633a53 53 0 0 0-3.66-5.846 2.467 2.467 0 0 0-3.284-.861 2.42 2.42 0 0 0-.858 3.281m-60.582 82.913a26.7 26.7 0 0 0 10.015-.871 2 2 0 0 0-1.064-3.858 22 22 0 0 1-2.246.534c-.221.04-.443.073-.664.11-.437.074.343-.035-.14.021a34 34 0 0 1-1.185.118 27.3 27.3 0 0 1-4.716-.054 2.007 2.007 0 0 0-2 2 2.054 2.054 0 0 0 2 2m-1.214 12.855c-2.117-.488-4.423.184-4.556 2.7-.011.21.008.413.015.622a2 2 0 0 0 .02.348c.111.351-.055.035.047-.116a2.7 2.7 0 0 1 .28-.444c.687-.686.575-.254.327-.243a8.3 8.3 0 0 0-1.9.617q-7 2.3-13.838 5.05-3.584 1.445-7.11 3.026a42 42 0 0 0-5.562 2.772 31.35 31.35 0 0 0-9.281 9.331c-4.072 6.368-5.327 13.979-6.9 21.229-1.632 7.532-3.361 15.052-5.32 22.507a81.1 81.1 0 0 1-9.813 23.221c-1.671 2.609 2.482 5.019 4.145 2.423 8.1-12.644 11.244-27.387 14.5-41.822 1.54-6.833 2.556-13.912 5.153-20.451a26.7 26.7 0 0 1 7.176-10.168c2.952-2.63 6.538-4.132 10.129-5.7 4.971-2.168 10.055-4.086 15.184-5.847q1.8-.617 3.6-1.2a6.96 6.96 0 0 0 2.906-1.351 3.86 3.86 0 0 0 1.079-2.746 3 3 0 0 0-.043-.758c-.075-.271.242-.149-.055.216l-1.653 1.367q-.358-.072.195.049c3.006.693 4.29-3.933 1.276-4.628Zm47.492-16.842c.587 2.335 1.151 4.676 1.717 7.016a36 36 0 0 0 1.372 5.031c1.372 3.425 4.705 5.332 7.946 6.739 4.17 1.811 8.688 2.948 12.991 4.421a128 128 0 0 1 13.764 5.42 47.4 47.4 0 0 1 11.212 7.2 38.6 38.6 0 0 1 7.49 9.225c5.23 8.76 7.982 18.458 10.705 28.209a381 381 0 0 1 8.967 38.727c1.152 6.786 2.293 13.615 1.572 20.5-.769 7.338-2.764 14.68-8.282 19.923a51.8 51.8 0 0 1-11.249 7.565 132 132 0 0 1-12.233 5.769q-5.369 2.22-10.877 4.088c-.279.094-.861.247-.16.168a3 3 0 0 1-.292 0H226.9c-3.089 0-3.094 4.8 0 4.8h6.733a8.4 8.4 0 0 0 2.861-.3q2.524-.849 5.019-1.781c8.574-3.192 17.145-6.876 24.867-11.823a35.3 35.3 0 0 0 10.6-9.7 33.6 33.6 0 0 0 4.5-10.3 63.5 63.5 0 0 0 1.584-11.567 52 52 0 0 0-.711-9.905 306 306 0 0 0-7.953-38.975c-2.639-9.9-5.105-19.971-9.208-29.382a66 66 0 0 0-6.62-12.013 42.3 42.3 0 0 0-9.336-9.39c-7.868-5.847-17.529-9.06-26.734-12.125-4.129-1.374-8.523-2.388-12.251-4.7a5.64 5.64 0 0 1-2.449-2.489c.249.506-.033-.12-.094-.306-.1-.3-.186-.609-.27-.916-.306-1.124-.562-2.262-.836-3.394-.566-2.34-1.129-4.682-1.716-7.016-.753-2.994-5.384-1.726-4.629 1.276Z" class="c"/><path d="M196.766 126.23c.045-.023.049-.03 0 0" class="b"/><path d="M274.78 255.542q8.126 0 16.249-.024l25.838-.039q3.234 0 6.469-.009c3.088 0 3.094-4.8 0-4.8q-8.379 0-16.757.025l-25.7.038q-3.051 0-6.1.009c-3.088 0-3.093 4.8 0 4.8Zm-272.462.008c8.082-.005 16.164-.047 24.246-.069 1.374 0 2.749-.01 4.123-.011 3.088 0 3.094-4.8 0-4.8-8.218 0-16.437.046-24.655.07-1.238 0-2.476.009-3.714.01-3.088 0-3.093 4.8 0 4.8m221.466-15.613c4.927-2.09 9.662-4.524 14.474-6.855a2.415 2.415 0 0 0 .861-3.284 2.463 2.463 0 0 0-3.284-.861c-4.812 2.331-9.547 4.766-14.473 6.855a2.4 2.4 0 0 0-.861 3.284 2.48 2.48 0 0 0 3.283.861m3.183-45.219 7.318 26.786c.813 2.976 5.445 1.713 4.628-1.276l-7.313-26.786c-.813-2.976-5.445-1.713-4.629 1.276Zm-106.642-11.549c2.56 8.289 5.478 16.481 8.286 24.688.5 1.473 1 2.948 1.526 4.415a2.46 2.46 0 0 0 2.952 1.676 2.42 2.42 0 0 0 1.676-2.948c-2.871-8.065-5.553-16.205-8.253-24.328-.528-1.589-1.064-3.176-1.558-4.775-.909-2.942-5.544-1.687-4.629 1.276Zm57.735-65.154a69 69 0 0 1-9.192 1.585c-2.521.269-5.291.571-7.721-.341-2.581-.967-3.962-3.633-6.962-3.765-3.384-.149-4.706 2.685-5.2 5.528l2.314-1.762h-.01a2.43 2.43 0 0 0-2.314 1.762c-.117.632-.054.941-.417 1.095a2.415 2.415 0 0 0-.861 3.284 2.464 2.464 0 0 0 3.284.861 5 5 0 0 0 2.619-3.962l-2.315 1.762h.01a2.425 2.425 0 0 0 2.315-1.762c.091-.526.169-1.057.3-1.575s.326-.487.021-.444c.718-.1 1.56.934 2.035 1.334a12.76 12.76 0 0 0 7.163 2.933 32.3 32.3 0 0 0 7.37-.336 75 75 0 0 0 8.831-1.566c3-.739 1.728-5.37-1.276-4.629Zm-4.92 136.203c1.8-2.679 4.042-6.112 7.576-6.457a10.53 10.53 0 0 1 5.752 1.457c2.092 1.1 4.123 2.231 6.311 3.143a29.5 29.5 0 0 0 13 2.334c4.593-.248 9.095-1.355 13.6-2.211l-2.335-.617a29.2 29.2 0 0 1 6.228 7.02 37 37 0 0 1 2.471 4.323 13 13 0 0 1 .75 1.786 2.5 2.5 0 0 1 .046 1.265 8.3 8.3 0 0 1-1.3 3.521 18.4 18.4 0 0 1-2.631 3.636c-2.034 2.092-4.287 2.522-7.089 2.5a18.32 18.32 0 0 1-11.2-3.731 2.415 2.415 0 0 0-3.283.861 2.46 2.46 0 0 0 .861 3.284 22.14 22.14 0 0 0 11.358 4.3c3.294.3 6.924.175 9.845-1.539a18.97 18.97 0 0 0 6.782-7.8 13.6 13.6 0 0 0 1.418-4.738 8.77 8.77 0 0 0-.976-4.8 39.7 39.7 0 0 0-5.867-9.271 27 27 0 0 0-3.525-3.611 3.4 3.4 0 0 0-3.073-.97c-1.163.2-2.319.455-3.476.686a46.5 46.5 0 0 1-11.776 1.311 28.2 28.2 0 0 1-11.436-3.567c-4.053-2.142-8.4-4.441-13.108-2.894-4.121 1.354-6.743 4.908-9.067 8.358-1.73 2.569 2.426 4.974 4.145 2.423Z" class="c"/><path d="m175.172 265.159 4.48-4.321a2.4 2.4 0 0 0 0-3.394 2.4 2.4 0 0 0-1.7-.7 2.53 2.53 0 0 0-1.7.7l-4.48 4.321a2.4 2.4 0 0 0 0 3.394 2.42 2.42 0 0 0 1.7.7 2.54 2.54 0 0 0 1.7-.7m5.243 16.492a13.7 13.7 0 0 0 3.738-1.523 19.4 19.4 0 0 0 3.041-2.561c2.05-1.97 4.182-3.854 6.22-5.839a2.4 2.4 0 0 0-3.395-3.394c-1.933 1.884-3.952 3.676-5.905 5.538-.482.46-.951.935-1.443 1.384-.085.077-.588.418-.584.5 0-.049.432-.312.132-.105-.1.07-.2.143-.3.211q-.31.207-.638.385a9 9 0 0 1-.342.176c-.033.016-.5.248-.152.077s-.1.038-.182.067a15 15 0 0 1-1.463.454 2.4 2.4 0 1 0 1.276 4.629Zm1.985-19.108c-2.135 2.347-4.435 4.546-6.78 6.681a2.42 2.42 0 0 0 0 3.394 2.454 2.454 0 0 0 3.394 0c2.345-2.135 4.645-4.334 6.78-6.681a2.4 2.4 0 1 0-3.394-3.394" class="c"/><path d="M182.6 275.583a7.15 7.15 0 0 0-.126 7.721 6.74 6.74 0 0 0 6.908 2.619 8.9 8.9 0 0 0 3.227-1.5 76 76 0 0 0 3.555-2.443c2.287-1.648 4.547-3.332 6.946-4.816a2.4 2.4 0 0 0-2.423-4.145c-3.888 2.406-7.4 5.367-11.293 7.756-.205.126-.415.245-.62.369s.365-.067-.061.018c-.179.035-.6.126-.18.076a5 5 0 0 1-.651.026c-.063 0-.645-.066-.339-.016s-.269-.072-.327-.089c-.1-.029-.632-.291-.23-.068-.107-.059-.584-.407-.206-.081a1.68 1.68 0 0 1-.572-1.143 3 3 0 0 1 .021-.762 2.3 2.3 0 0 1 .516-1.1 2.424 2.424 0 0 0-.861-3.284 2.45 2.45 0 0 0-3.284.861ZM24.367 207.767c30.788.512 101.072.672 126.167.839a8.79 8.79 0 0 1 8.329 6.141c5.972 18.886 19.4 61.641 25.719 81.855a5.633 5.633 0 0 1-5.4 7.317c-27.194-.1-100.462-.36-128.631-.93a5.62 5.62 0 0 1-5.264-3.963c-5.555-17.964-19.82-63.232-26.392-83.912a5.64 5.64 0 0 1 5.472-7.347" class="c"/><path d="M24.367 210.167c14.379.238 28.762.331 43.143.423q25.2.162 50.4.257 10.6.046 21.2.1 4.14.019 8.28.044c3.068.018 6.222-.168 8.251 2.621a15 15 0 0 1 1.752 4.442q.708 2.239 1.414 4.48 1.686 5.344 3.368 10.692 3.912 12.424 7.814 24.851 3.846 12.245 7.685 24.491 1.619 5.164 3.236 10.329c.776 2.48 3.052 6.784-.324 8.328-1.138.52-2.6.294-3.829.289l-3.975-.014-9.171-.034q-10.962-.042-21.926-.093-24.94-.114-49.881-.3c-13.491-.1-26.983-.206-40.472-.469-1.5-.029-2.927-.386-3.617-1.89a32 32 0 0 1-1.2-3.821q-1.446-4.653-2.9-9.3-3.631-11.618-7.285-23.227-7.176-22.818-14.4-45.62c-.421-1.327-1.2-2.86-.774-4.241a3.29 3.29 0 0 1 3.212-2.334c3.086-.04 3.094-4.84 0-4.8a8.135 8.135 0 0 0-7.956 9.717 47 47 0 0 0 1.425 4.62l1.571 4.957q3.753 11.854 7.491 23.714 7.406 23.493 14.747 47.008c1.1 3.546 1.849 7.463 5.562 9.211 2.807 1.321 6.541.857 9.59.905q10.269.162 20.538.249 25.367.246 50.735.355 22.469.117 44.936.194l4.052.014a13.2 13.2 0 0 0 5.08-.561 8.14 8.14 0 0 0 4.778-5.2c.653-2.148.116-4.154-.527-6.212q-3.468-11.084-6.945-22.163-7.822-24.933-15.674-49.858c-1.014-3.215-1.781-6.721-3.215-9.777-2.032-4.329-6.346-6.313-10.932-6.343q-8.967-.057-17.935-.092-24.9-.113-49.795-.233c-16.192-.088-32.384-.183-48.574-.381q-4.476-.054-8.952-.127c-3.091-.052-3.092 4.748-.001 4.799" class="c"/><path d="M78.021 253.825c-.192-2.285 1.5-4.161 3.755-4.893a7.66 7.66 0 0 1 6.248.675 6.73 6.73 0 0 1 3.217 5.472 6.13 6.13 0 0 1-2.284 4.046 6 6 0 0 1-3.824 1.283 6.8 6.8 0 0 1-4.371-1.742 11.1 11.1 0 0 1-2.568-3.932 4.5 4.5 0 0 1-.173-.909m34.088 0c-.883-2.285-3.457-4.161-6.056-4.893-2.14-.6-4.5-.543-5.93.675s-1.6 3.552-.645 5.472a11.8 11.8 0 0 0 4.186 4.046 8.87 8.87 0 0 0 4.428 1.283 4.16 4.16 0 0 0 3.552-1.742 4.8 4.8 0 0 0 .462-1.111 6.1 6.1 0 0 0 .257-2.821 5 5 0 0 0-.254-.909" class="e"/><path d="M117.066 240.559c-9.4-8.013-22.775-11.181-34.883-8.926-6.484 1.208-12.979 4.449-16.427 10.3-3.536 6-2.938 13.148.277 19.129a33.1 33.1 0 0 0 7.368 9.061 27.1 27.1 0 0 0 10.806 6.252L82.53 274.7c.683 2.239 1.347 4.484 2.043 6.719a3.86 3.86 0 0 0 1.717 2.5 7.8 7.8 0 0 0 3.4.718c2.228.1 4.47.048 6.7.053 5.257.014 10.517.043 15.774-.034 2.18-.032 5.391-.312 5.445-3.184a21.3 21.3 0 0 0-.6-3.732q-.366-2.16-.73-4.321l-1.677 2.952c6.958-2.041 11.289-9.513 11.767-16.427.525-7.586-3.788-14.546-9.309-19.385-2.314-2.029-5.722 1.353-3.394 3.394 4.407 3.863 8.071 9.089 7.941 15.178-.107 5-3.178 11.114-8.281 12.612a2.47 2.47 0 0 0-1.676 2.952l.609 3.605.283 1.666.161.947q.07.867.13.153l.617-1.059c.491-.463.186-.219-.25-.178-.344.032-.7.022-1.04.027s-.7.008-1.043.011q-1.325.012-2.649.016-3.636.015-7.271.013-3.609 0-7.219-.014-1.293-.006-2.587-.016a8.1 8.1 0 0 1-2.9-.234l.861.861a12.7 12.7 0 0 1-.691-2.129l-.816-2.686a13.4 13.4 0 0 0-.93-2.832c-.625-1.068-1.834-1.165-2.889-1.538a24.6 24.6 0 0 1-8.32-5.576c-4.379-4.165-8.352-10.1-7.527-16.436.777-5.962 5.539-10.062 10.977-11.918a37.1 37.1 0 0 1 14.32-1.477 35.3 35.3 0 0 1 20.194 8.052 2.464 2.464 0 0 0 3.394 0 2.42 2.42 0 0 0 .002-3.394" class="e"/><path d="m102.826 277.256 1.038 4.736a2.4 2.4 0 0 0 4.386.573 2.6 2.6 0 0 0 .242-1.849l-1.037-4.736a2.4 2.4 0 0 0-4.387-.573 2.6 2.6 0 0 0-.242 1.849m-10.246 0 1.2 4.736a2.4 2.4 0 0 0 2.952 1.676 2.43 2.43 0 0 0 1.435-1.1 2.54 2.54 0 0 0 .242-1.849l-1.2-4.736a2.4 2.4 0 0 0-2.952-1.676 2.43 2.43 0 0 0-1.434 1.1 2.53 2.53 0 0 0-.242 1.849Z" class="e"/></g></svg>