<svg xmlns="http://www.w3.org/2000/svg" version="1.1" xmlns:xlink="http://www.w3.org/1999/xlink" viewBox="0 0 700 700" style="overflow: hidden; display: block;" width="700" height="700"><defs></defs><g id="two-0" transform="matrix(1 0 0 1 0 0)" opacity="1"><path transform="matrix(1 0 0 1 350 350)" id="two-150" d="M 318.973392 33.525454 C 302.616074 60.110457 256.148227 42.074028 225.488092 47.928973 C 210.26242 50.83651 182.619954 43.164086 179.694826 58.386388 C 173.020276 93.120604 281.685212 86.704021 267.899801 119.276676 C 255.628287 148.272243 189.1112 72.849119 174.325835 100.647068 C 152.906475 140.917585 263.780013 153.190576 272.477193 197.966268 C 274.816422 210.009322 269.548228 228.599212 257.796445 232.120961 C 212.39654 245.726307 184.422038 161.96705 137.862048 153.111315 C 130.20987 151.655867 120.967283 153.247865 114.759922 157.953482 C 108.397014 162.777015 104.988699 171.553516 103.584504 179.413625 C 99.223629 203.824013 113.014868 229.157982 113.067955 253.954786 C 113.116521 276.639951 117.274156 303.31381 104.684159 322.184714 C 97.880928 332.381946 84.235847 343.643262 72.380779 340.524792 C 44.837884 333.279647 51.608839 282.445942 28.010455 266.501681 C 20.255253 261.261875 9.103301 264.225333 0 262.050794 C -8.983064 259.904976 -18.71338 258.214072 -26.641441 253.47637 C -35.529209 248.16516 -43.581493 240.38819 -49.25516 231.727308 C -56.473901 220.707862 -50.830023 199.01149 -63.130959 194.297112 C -73.75306 190.226153 -83.85586 204.538671 -93.645739 210.331771 C -108.96842 219.398874 -123.672916 249.772797 -138.631668 240.117091 C -156.448634 228.616439 -110.146798 187.532819 -128.366027 176.680678 C -164.330207 155.258898 -195.152699 279.005564 -228.82427 254.135097 C -249.396201 238.940273 -199.113956 207.008354 -201.641013 181.558383 C -202.568223 172.22046 -216.426892 166.791432 -216.656839 157.410406 C -217.097196 139.445354 -191.673946 127.722684 -190.201158 109.812689 C -189.578489 102.240659 -191.743737 92.516889 -197.94851 88.132354 C -217.536511 74.290709 -260.693589 109.762999 -270.6301 87.933049 C -277.370633 73.124481 -234.263579 66.411731 -238.351744 50.663227 C -243.169441 32.104404 -288.57613 49.458643 -292.95037 30.790324 C -296.152635 17.123741 -268.999067 12.958371 -263.603641 0 C -260.098142 -8.419271 -265.47884 -18.896012 -262.838986 -27.625491 C -260.029612 -36.915544 -252.153218 -44.188052 -247.225011 -52.549299 C -242.715726 -60.199798 -232.941434 -67.301898 -234.192725 -76.093829 C -237.557736 -99.737372 -292.989726 -104.437323 -285.512932 -127.118548 C -280.072652 -143.621905 -248.51059 -126.157371 -233.413159 -134.761151 C -225.324722 -139.370619 -224.615251 -154.132109 -215.6635 -156.688704 C -192.910568 -163.186879 -162.697668 -114.706813 -147.919203 -133.187049 C -123.622763 -163.569364 -238.49176 -206.74441 -210.100489 -233.340232 C -185.091483 -256.767682 -157.898684 -184.488941 -125.639667 -172.928166 C -117.281337 -169.932762 -106.413202 -166.557574 -98.795001 -171.11796 C -90.966343 -175.804329 -89.13041 -187.351856 -87.403308 -196.311044 C -82.15006 -223.5618 -116.997992 -270.394858 -91.084374 -280.328876 C -70.482624 -288.226583 -70.589688 -226.766129 -48.61039 -228.693902 C -34.746522 -229.909882 -41.812918 -265.666535 -27.897834 -265.430155 C -7.941869 -265.091157 -19.91843 -213.036782 -0.000001 -211.76728 C 15.150336 -210.801673 11.424779 -246.202148 26.229822 -249.560092 C 35.08971 -251.56961 41.25954 -234.050372 50.148179 -235.928637 C 75.860135 -241.361849 73.193387 -310.044677 97.469301 -299.979664 C 135.2722 -284.306241 60.661986 -213.960233 78.964897 -177.358064 C 81.961394 -171.365669 90.218425 -166.74014 96.843543 -167.737939 C 141.093339 -174.402335 151.075884 -282.336374 192.034555 -264.31289 C 208.395937 -257.113215 185.48976 -227.684409 189.278569 -210.215149 C 191.415841 -200.360715 202.46214 -193.130161 203.335999 -183.084557 C 204.709377 -167.296633 177.729185 -148.474653 188.937409 -137.271064 C 215.201063 -111.018271 275.011735 -201.498761 296.27584 -171.054937 C 310.48545 -150.711036 245.128039 -135.731525 250.389823 -111.480732 C 253.180871 -98.617199 284.857102 -105.948858 285.637193 -92.809151 C 287.22775 -66.018097 238.415645 -64.797925 218.779315 -46.50298 C 210.829801 -39.096507 194.406229 -31.021485 198.167741 -20.828269 C 210.945811 13.798665 280.350051 -24.383925 308.057955 -0.000001 C 316.792377 7.686596 325.070555 23.615938 318.973392 33.525454 Z " fill="hsl(0, 0%, 100%)" stroke="undefined" stroke-width="1" stroke-opacity="1" fill-opacity="1" visibility="visible" stroke-linecap="butt" stroke-linejoin="miter" stroke-miterlimit="4"></path></g></svg>