<?xml version="1.0" standalone="no"?>
<!DOCTYPE svg PUBLIC "-//W3C//DTD SVG 20010904//EN"
 "http://www.w3.org/TR/2001/REC-SVG-20010904/DTD/svg10.dtd">
<svg version="1.0" xmlns="http://www.w3.org/2000/svg"
 width="1280.000000pt" height="1553.000000pt" viewBox="0 0 1280.000000 1553.000000"
 preserveAspectRatio="xMidYMid meet">

<g transform="translate(0.000000,1553.000000) scale(0.100000,-0.100000)"
fill="#000000" stroke="none">
<path d="M0 7765 l0 -7765 6400 0 6400 0 0 4485 c0 2467 -2 4485 -5 4485 -3 0
-45 -31 -93 -68 -48 -37 -154 -117 -237 -176 -236 -171 -253 -185 -371 -299
-196 -188 -290 -356 -340 -608 -16 -76 -18 -242 -24 -1854 -7 -1924 -3 -1813
-61 -2065 -50 -219 -166 -495 -284 -677 -285 -438 -734 -753 -1271 -889 -266
-67 -272 -67 -994 -71 -360 -2 -696 -3 -747 -1 l-92 3 288 680 287 680 410 5
c429 6 464 10 604 58 243 85 402 255 472 507 l23 80 6 1720 c5 1701 6 1721 27
1830 43 224 110 406 223 610 116 209 278 433 393 544 l45 44 -63 71 c-218 245
-442 596 -520 814 -32 90 -60 199 -83 322 -16 87 -18 234 -23 1770 l-5 1675
-23 80 c-78 281 -256 451 -558 532 -98 26 -105 27 -513 32 l-413 6 268 265
c572 565 973 882 1173 929 20 5 -1683 9 -3894 9 -2414 0 -3915 -4 -3891 -9
150 -35 441 -249 846 -619 150 -137 580 -561 580 -571 0 -4 -181 -9 -402 -11
-395 -4 -405 -5 -498 -30 -306 -83 -484 -251 -562 -533 l-23 -80 -6 -1675 c-3
-921 -9 -1691 -13 -1710 -4 -19 -17 -82 -28 -139 -25 -128 -75 -275 -133 -391
-89 -177 -280 -460 -429 -634 l-85 -99 71 -76 c242 -258 468 -653 552 -961 63
-235 60 -118 66 -2000 l5 -1715 23 -80 c81 -292 274 -467 596 -543 57 -13 150
-17 474 -22 l403 -5 288 -680 287 -680 -685 -3 c-579 -2 -706 0 -816 13 -526
65 -984 280 -1325 624 -318 320 -502 691 -587 1186 -15 91 -17 261 -23 1865
-7 1919 -4 1823 -62 2000 -29 91 -108 243 -168 322 -68 90 -238 249 -362 339
-235 171 -488 363 -488 370 0 9 188 175 345 304 264 217 394 351 510 525 131
195 194 366 215 577 6 57 10 748 10 1673 0 1711 0 1697 56 1948 101 450 359
884 689 1160 163 136 352 251 537 327 l83 35 -1227 0 -1228 0 0 -7765z m8360
7750 c0 -17 -1955 -3464 -1961 -3458 -4 5 -440 775 -969 1713 -529 938 -968
1715 -976 1728 l-14 22 1960 0 c1078 0 1960 -2 1960 -5z m-3405 -4980 c358
-329 663 -611 680 -626 l29 -28 -24 -27 c-50 -53 -187 -148 -275 -191 -244
-118 -533 -130 -785 -32 -392 151 -652 555 -627 973 13 216 99 434 230 583
l30 34 46 -44 c25 -24 339 -313 696 -642z m3734 564 c114 -169 164 -337 164
-544 0 -154 -18 -249 -72 -381 -52 -126 -119 -224 -226 -329 -136 -134 -292
-218 -489 -262 -93 -21 -297 -21 -392 0 -192 43 -390 149 -503 271 l-25 27 25
24 c13 13 339 314 724 669 670 618 700 644 718 628 11 -9 45 -55 76 -103z
m-2601 -3186 l-3 -248 -455 -5 c-496 -6 -486 -5 -573 -66 -56 -40 -87 -102
-98 -197 -4 -40 -8 -332 -9 -651 0 -628 -1 -639 -57 -750 -32 -62 -113 -183
-155 -232 -22 -25 -29 -40 -22 -49 5 -7 28 -36 52 -65 58 -72 120 -181 151
-265 l26 -70 6 -670 c5 -619 7 -674 24 -719 27 -73 91 -131 172 -156 36 -11
70 -20 77 -19 6 0 34 32 61 70 58 81 194 217 285 283 318 234 725 324 1112
246 197 -40 388 -124 549 -241 98 -72 247 -220 304 -302 39 -58 39 -58 80 -52
99 16 179 74 216 157 l24 53 5 675 c6 652 6 677 27 730 42 114 118 241 189
320 l34 37 -21 19 c-60 54 -163 218 -201 320 -22 58 -23 68 -28 714 -5 479 -9
665 -18 692 -21 62 -73 120 -137 153 l-59 30 -463 3 -463 3 0 250 0 250 483
-3 c462 -4 485 -5 562 -26 167 -47 325 -148 417 -269 65 -85 93 -137 130 -243
l33 -95 5 -675 c5 -660 6 -676 27 -733 40 -106 105 -183 273 -327 47 -40 86
-76 88 -81 2 -4 -41 -40 -95 -80 -172 -126 -237 -200 -273 -314 -10 -30 -15
-214 -19 -740 l-6 -700 -33 -95 c-83 -237 -257 -413 -481 -485 l-53 -17 6 -37
c43 -275 28 -425 -79 -746 -169 -510 -603 -1354 -1173 -2283 -101 -166 -127
-201 -137 -190 -16 17 -204 324 -348 568 -535 908 -887 1644 -1004 2100 -43
171 -53 324 -29 479 9 57 15 105 13 107 -1 1 -33 14 -72 29 -185 74 -331 205
-410 368 -82 172 -78 126 -85 912 -5 634 -7 704 -23 745 -44 111 -95 167 -270
298 l-108 80 116 98 c156 130 226 219 268 339 7 19 13 269 17 700 6 655 7 672
28 743 75 246 236 424 463 512 140 54 190 58 687 59 l452 1 -2 -247z m1299
-1306 c-36 -462 -398 -837 -867 -897 -544 -70 -1060 350 -1097 893 l-6 87 988
0 988 0 -6 -83z"/>
<path d="M10445 15492 c467 -194 851 -563 1070 -1023 87 -185 146 -374 187
-604 22 -119 22 -133 29 -1825 4 -1169 9 -1722 17 -1758 39 -189 106 -345 214
-497 93 -131 282 -321 552 -554 131 -113 249 -214 262 -224 l24 -19 0 3271 0
3271 -1222 0 -1223 -1 90 -37z"/>
</g>
</svg>
